<svg xmlns="http://www.w3.org/2000/svg" viewBox="0 0 511.6 511.6"><defs/><path fill="#fc6e51" d="M360 424a144 144 0 0044-104 148 148 0 10-44 104zM340 84s104 103 104 236a188 188 0 11-376 0C68 114 268 4 268 4s-20 60 8 88 64-8 64-8z"/><path fill="#3a3847" d="M340 84l-9 7c23 26 97 117 97 229a188 188 0 01-172 188c104 0 188-84 188-188 0-133-104-236-104-236z" opacity=".3"/><path fill="#fff" d="M84 320C84 153 215 49 265 16l3-12S68 114 68 320a188 188 0 00196 187c-100-4-180-86-180-187z" opacity=".4"/><path fill="#ffce54" d="M228 93s-54 22-71 116l136-33c-68-25-65-83-65-83z"/><path fill="#3a3847" d="M228 93l-8 4c1 14 8 58 65 79l-127 31-1 2 136-33c-68-25-65-83-65-83z" opacity=".2"/><path fill="#fff" d="M228 97v-4s-54 22-71 116l9-2c13-71 47-100 62-110z" opacity=".4"/><path fill="#ed5564" d="M264 311c5 5 5 13 0 17a12 12 0 01-17 0c-4-4-4-12 0-17 5-4 13-4 17 0z"/><path fill="#e6e9ed" d="M264 311c-4-4-12-4-17 0-4 5-4 13 0 17 3 3 6 4 9 4s6-1 8-4c5-4 5-12 0-17zm85-85a132 132 0 11-187 187 132 132 0 01187-187z"/><path fill="#3a3847" d="M179 413a132 132 0 0185-225 132 132 0 100 263c-31-2-62-14-85-38z" opacity=".2"/><path fill="#fff" d="M333 227a132 132 0 01-85 224 132 132 0 100-263c31 2 61 15 85 39z"/><path fill="#656d78" d="M384 246a146 146 0 010 148c-6 11-14 21-24 30a147 147 0 01-209 0 146 146 0 01-38-143 146 146 0 0169-89 143 143 0 0174-20 148 148 0 01128 74zm-35 167a132 132 0 10-187-187 132 132 0 00187 187z"/><g fill="#3a3847"><path d="M256 512a4 4 0 110-8c101 0 184-83 184-184a4 4 0 118 0c0 106-86 192-192 192z"/><path d="M256 512c-106 0-192-86-192-192a4 4 0 118 0c0 101 82 184 184 184a4 4 0 110 8z"/><path d="M444 324c-3 0-4-2-4-4 0-118-84-213-100-230-15 12-44 27-67 5-23-23-16-64-12-82C224 36 72 143 72 320a4 4 0 11-8 0C64 114 264 2 266 0a4 4 0 016 5c-1 1-19 58 7 84 24 25 57-7 58-8h6c1 1 105 106 105 239 0 2-2 4-4 4z"/><path d="M164 192h-1c-2-1-4-3-3-5 20-67 64-97 66-98a4 4 0 016 2c0 1 6 41 30 62a4 4 0 01-5 6c-20-18-29-47-32-60-12 10-42 39-57 90-1 2-2 3-4 3z"/><path d="M256 472a152 152 0 01-147-192 149 149 0 0171-92 153 153 0 01223 92 152 152 0 01-147 192zm0-296a144 144 0 100 288 144 144 0 000-288z"/><path d="M256 456a135 135 0 01-136-136 135 135 0 01136-136 136 136 0 010 272zm0-264a127 127 0 00-128 128 127 127 0 00128 128 128 128 0 000-256z"/><path d="M256 336a16 16 0 01-16-16 16 16 0 0127-11c3 2 5 6 5 11a16 16 0 01-16 16zm0-24l-6 2-2 6 2 5c3 3 8 3 11 0a8 8 0 00-5-13z"/><path d="M264 315a4 4 0 01-3-7l57-56a4 4 0 116 6l-57 56-3 1zM256 386c-2 0-4-2-4-4v-50a4 4 0 118 0v50c0 2-2 4-4 4zM358 222l-3-1c-2-2-2-4 0-6l3-3a4 4 0 115 6l-3 3-2 1zM151 428a4 4 0 01-3-6l3-3a4 4 0 116 5l-3 3-3 1zM328 199h-2c-2-1-3-4-2-6l2-3a4 4 0 117 4l-2 3-3 2zM182 452a4 4 0 01-4-6l2-4a4 4 0 117 4l-2 4-3 2zM293 185h-1c-2-1-3-3-3-5l1-4c1-2 3-4 5-3s4 3 3 5l-1 4c-1 2-2 3-4 3zM218 467a4 4 0 01-4-5l1-4a4 4 0 017 2l-1 4-3 3zM256 180c-2 0-4-2-4-4v-4a4 4 0 118 0v4c0 2-2 4-4 4zM256 472c-2 0-4-2-4-4v-4a4 4 0 118 0v4c0 2-2 4-4 4zM219 185c-2 0-4-1-4-3l-1-4a4 4 0 117-2l1 4a4 4 0 01-3 5zM294 467c-2 0-3-2-4-3l-1-4a4 4 0 018-2l1 4a4 4 0 01-4 5zM184 199l-4-2-2-3a4 4 0 017-4l2 3a4 4 0 01-3 6zM330 452l-4-2-2-4a4 4 0 117-4l2 4a4 4 0 01-3 6zM154 222l-3-1-3-3a4 4 0 116-6l3 3a4 4 0 01-3 7zM360 428l-3-1-2-3a4 4 0 115-5l3 2 1 2v1c0 3-1 4-4 4zM131 252l-2-1-3-2a4 4 0 114-7l3 2a4 4 0 01-2 8zM384 398l-2-1-4-2a4 4 0 014-7l4 2 2 4c0 2-2 4-4 4zM117 287l-1-1-4-1a4 4 0 112-7l4 1a4 4 0 01-1 8zM399 362h-1l-4-1a4 4 0 012-8l4 1a4 4 0 01-1 8zM112 324h-4c-2 0-4-2-4-4 0-3 1-4 4-4h4a4 4 0 010 8zM404 324h-4a4 4 0 110-8h4a4 4 0 110 8zM113 362a4 4 0 01-1-8l4-1a4 4 0 112 8l-4 1h-1zM395 286a4 4 0 01-1-7l4-1c2-1 4 0 5 3 0 2-1 4-3 4l-4 1h-1zM128 398a4 4 0 01-2-8l3-2a4 4 0 114 7l-3 2-2 1zM380 252l-3-2c-1-2 0-5 1-6l4-2c2-1 6 1 6 4 0 1-1 3-3 3l-3 2-2 1zM338 242c-2 0-4-2-4-4s2-4 4-4a4 4 0 010 8zM174 406c-2 0-4-2-4-4s2-4 4-4a4 4 0 110 8zM286 212c-2 0-4-2-4-4s2-4 4-4a4 4 0 110 8zM226 436c-2 0-4-2-4-4s2-4 4-4a4 4 0 110 8zM226 212c-2 0-4-2-4-4s2-4 4-4a4 4 0 110 8zM286 436c-2 0-4-2-4-4s2-4 4-4a4 4 0 110 8zM174 242c-2 0-4-2-4-4s2-4 4-4a4 4 0 110 8zM338 406c-2 0-4-2-4-4s2-4 4-4a4 4 0 110 8zM144 294c-2 0-4-2-4-4s2-4 4-4a4 4 0 110 8zM368 354c-2 0-4-2-4-4s2-4 4-4a4 4 0 010 8zM144 354c-2 0-4-2-4-4s2-4 4-4a4 4 0 110 8zM368 294c-2 0-4-2-4-4s2-4 4-4a4 4 0 110 8z"/></g></svg>