<svg width="1600" height="88" viewBox="0 0 1600 88" fill="none" xmlns="http://www.w3.org/2000/svg">
<path d="M0 87H126M414 87V59.5895L364.455 74V87H255.5H152M414 87H553.559V48.9835L590.348 37.6887L589.848 64L618 55.5M414 87H379M618 55.5V18L652.5 2.5V87M618 55.5L618.5 87H590.348H739.298M739.298 87V64L750.5 55.5H760V42.5L773 29L787 42.5V55.5H798L808.5 64V87M739.298 87H808.5M982 87L966 67.5H917V87H808.5M982 87H955.04M982 87C982 87 1099.93 87 1175.5 87M1600 87C1600 87 1503.72 87 1391 87M126 87C126 80.7516 126 77.2484 126 71L152 57.4105C152 68.9659 152 75.4446 152 87M126 87H152M338.455 87V74L385 60.4621V68.0244M1175.5 87V67.5H1190.5V87M1175.5 87C1180.42 87 1185.42 87 1190.5 87M1190.5 87C1192.82 87 1195.15 87 1197.5 87M1197.5 87V61H1214.5V87M1197.5 87C1203.09 87 1208.76 87 1214.5 87M1214.5 87C1216.66 87 1218.82 87 1221 87M1221 87V54H1241V87M1221 87C1227.59 87 1234.26 87 1241 87M1241 87C1289.73 87 1341.92 87 1391 87M1452.5 0.5V7.5M1452.5 7.5L1445.5 13V19H1433V54H1420.5V45.5H1414L1409 40.5L1405 45.5H1398V54H1391V87M1452.5 7.5L1459.5 13V19H1472.5V54H1484.5V45.5H1491L1496 40.5L1500 45.5H1507V54H1514V87M154.5 87C154.5 80.7516 154.5 77.2484 154.5 71L180.5 57.4105C180.5 68.9659 180.5 75.4446 180.5 87H154.5ZM183 87C183 80.7516 183 77.2484 183 71L209 57.4105C209 68.9659 209 75.4446 209 87H183Z" stroke="black"/>
</svg>
